<?xml version="1.0" standalone="no"?><!DOCTYPE svg PUBLIC "-//W3C//DTD SVG 1.1//EN" "http://www.w3.org/Graphics/SVG/1.1/DTD/svg11.dtd"><svg t="1506480308010" class="icon" style="" viewBox="0 0 1024 1024" version="1.1" xmlns="http://www.w3.org/2000/svg" p-id="2108" xmlns:xlink="http://www.w3.org/1999/xlink" width="200" height="200"><defs><style type="text/css"></style></defs><path d="M756 1018.5c-49.3 0-59.2-30.8-59.2-30.8L516.5 645.4l-135.2 134v163.7l-90.2 74.4-45-223.4-225.5-89.2 75.2-74.4H246l120.2-119L35.6 318s-45.4-23.8-15-74.4c8.7-14.6 31.9-18.3 52.6-18.3 20 0 37.6 3.4 37.6 3.4L546.7 318l210.4-208.4S791.5 67 844.9 67c26.7 0 58.2 10.6 92.4 42.6 97.9 91.4 0 163.7 0 163.7L726.9 496.6 817.1 958s2.4 54-45 59.5c-5.8 0.6-11.1 1-16.1 1m0-46c3.2 0 6.7-0.2 10.5-0.7 0.8-0.1 1.4-0.2 1.7-0.2 1.2-1.8 2.4-6.1 2.7-9.6l-89.3-456.6c-2.8-14.5 1.5-29.5 11.7-40.4l210.4-223.2c1.9-2 3.9-3.9 6.1-5.4 0.2-0.1 23.4-19.1 24.7-41.7 0.9-15.5-8.9-32.7-28.8-51.4-21.5-20.1-42.1-30.3-61-30.3-29.9 0-52 25.5-52 25.5-1.1 1.3-2.2 2.6-3.4 3.8L578.9 350.5c-8.7 8.6-20.5 13.3-32.5 13.3-3.1 0-6.1-0.4-9.2-0.9l-435.3-89.1c-0.1 0-13.9-2.6-29.1-2.6-7.8 0-12.9 0.7-15.8 1.3-0.8 2-1.1 3.1-1.2 3.1 0.4 0.5 1.1 1.3 1.8 1.8 0.4 0.1-0.2-0.1 0.9 0.7l330.7 193.5c12.4 7.2 20.7 19.7 22.5 34 1.8 14.2-3.1 28.3-13.2 38.5l-120 119.2c-8.6 8.5-20.3 13.3-32.4 13.3H114.7l-11.6 11.5L263 751.5c14.5 5.8 25.2 18.4 28.3 33.8l29.8 147.9 14.1-11.7v-142c0-12.3 5-24.1 13.6-32.7l135.2-134c8.6-8.6 20.3-13.3 32.4-13.3 2.4 0 4.6 0.1 7.1 0.5 14.4 2.2 27 11.2 33.8 24.1l180.3 342.4c0.5 0.9 0.9 1.8 1.3 2.7 1.8 1 6.8 3.3 17.1 3.3z" fill="#333333" p-id="2109"></path></svg>