<?xml version="1.0" standalone="no"?><!DOCTYPE svg PUBLIC "-//W3C//DTD SVG 1.1//EN" "http://www.w3.org/Graphics/SVG/1.1/DTD/svg11.dtd"><svg t="1506480275578" class="icon" style="" viewBox="0 0 1024 1024" version="1.1" xmlns="http://www.w3.org/2000/svg" p-id="1762" xmlns:xlink="http://www.w3.org/1999/xlink" width="200" height="200"><defs><style type="text/css"></style></defs><path d="M558.933333 465.066667h-93.866666v93.866666h93.866666v-93.866666z m0 162.133333h-93.866666v93.866667h93.866666v-93.866667z m371.2-533.333333h-93.866666V21.333333c0-12.8-8.533333-21.333333-21.333334-21.333333s-21.333333 8.533333-21.333333 21.333333v68.266667H234.666667V21.333333c0-12.8-12.8-21.333333-25.6-21.333333s-21.333333 8.533333-21.333334 21.333333v68.266667H93.866667C42.666667 93.866667 0 136.533333 0 187.733333v746.666667C0 981.333333 42.666667 1024 93.866667 1024h836.266666c51.2 0 93.866667-42.666667 93.866667-93.866667V187.733333c0-51.2-42.666667-93.866667-93.866667-93.866666z m46.933334 836.266666c0 25.6-21.333333 46.933333-46.933334 46.933334H93.866667c-25.6 0-46.933333-21.333333-46.933334-46.933334V371.2h930.133334v558.933333z m0-605.866666H46.933333V187.733333c0-25.6 21.333333-46.933333 46.933334-46.933333h93.866666v68.266667c0 12.8 8.533333 21.333333 21.333334 21.333333s21.333333-8.533333 21.333333-21.333333V140.8h558.933333v68.266667c0 12.8 8.533333 21.333333 21.333334 21.333333s21.333333-8.533333 21.333333-21.333333V140.8h93.866667c25.6 0 46.933333 21.333333 46.933333 46.933333v136.533334h4.266667z m-187.733334 302.933333h-93.866666v93.866667h93.866666v-93.866667z m0-162.133333h-93.866666v93.866666h93.866666v-93.866666z m-230.4 324.266666h-93.866666v93.866667h93.866666v-93.866667z m-234.666666 0H234.666667v93.866667h93.866666v-93.866667h-4.266666z m0-324.266666H234.666667v93.866666h93.866666v-93.866666h-4.266666z m0 162.133333H234.666667v93.866667h93.866666v-93.866667h-4.266666z" p-id="1763"></path></svg>