<?xml version="1.0" encoding="utf-8"?>
<!-- Generator: Adobe Illustrator 18.0.0, SVG Export Plug-In . SVG Version: 6.00 Build 0)  -->
<!DOCTYPE svg PUBLIC "-//W3C//DTD SVG 1.1//EN" "http://www.w3.org/Graphics/SVG/1.1/DTD/svg11.dtd">
<svg version="1.1" id="图层_1" xmlns="http://www.w3.org/2000/svg" xmlns:xlink="http://www.w3.org/1999/xlink" x="0px" y="0px"
	 viewBox="0 0 120 120" enable-background="new 0 0 120 120" xml:space="preserve">
<path fill="#FFE0C4" d="M65.9,11.3c-1.2,0-2.4,0.1-3.6,0.1c25.2,1.9,45.1,22.9,45.1,48.5c0,25.7-19.9,46.7-45.1,48.5
	c1.2,0.1,2.4,0.1,3.6,0.1c26.9,0,48.7-21.8,48.7-48.7C114.6,33.1,92.8,11.3,65.9,11.3z"/>
<path fill="#FC8169" d="M55,11.3c26.9,0,48.7,21.8,48.7,48.7c0,26.9-21.8,48.7-48.7,48.7C28.1,108.7,6.3,86.9,6.3,60
	C6.3,33.1,28.1,11.3,55,11.3z"/>
<g>
	<g>
		<polygon fill="#FFFFFF" points="57.3,55.3 57.3,31.5 47.8,31.5 47.8,64.8 78.7,64.8 78.7,55.3 		"/>
	</g>
</g>
</svg>
