<?xml version="1.0" encoding="utf-8"?>
<!-- Generator: Adobe Illustrator 18.0.0, SVG Export Plug-In . SVG Version: 6.00 Build 0)  -->
<!DOCTYPE svg PUBLIC "-//W3C//DTD SVG 1.1//EN" "http://www.w3.org/Graphics/SVG/1.1/DTD/svg11.dtd">
<svg version="1.1" id="图层_1" xmlns="http://www.w3.org/2000/svg" xmlns:xlink="http://www.w3.org/1999/xlink" x="0px" y="0px"
	 viewBox="0 0 1024 1024" enable-background="new 0 0 1024 1024" xml:space="preserve">
<path fill="#222222" d="M706,829.4c-1.2,0-2.3-0.4-3.3-1.1c-1.8-1.3-2.7-3.6-2.4-5.8l10.2-69.2l-48.9-48c-1.6-1.6-2.2-4-1.6-6.1
	c0.6-2.2,2.4-3.8,4.6-4.2l66.3-11.2l28.7-63.3c0.9-2.1,2.9-3.4,5.1-3.5c2.2,0,4.2,1.2,5.2,3.3l30.7,62.2l66.6,8.9
	c2.2,0.3,4,1.8,4.7,4c0.7,2.2,0.2,4.6-1.4,6.2l-47.3,49.7l12.5,68.8c0.4,2.3-0.4,4.5-2.2,5.9c-1.7,1.4-4.1,1.6-6.1,0.6L767.6,795
	l-58.9,33.6C707.9,829.2,706.9,829.4,706,829.4L706,829.4z"/>
<path fill="#222222" d="M760.9,947.1c-116.4,0-211.2-94.7-211.2-211.2c0-116.4,94.7-211.2,211.2-211.2
	c116.5,0,211.2,94.7,211.2,211.2c0,56.3-22,109.3-61.9,149.3C870.3,925.1,817.3,947.1,760.9,947.1z M760.9,554.7
	c-99.9,0-181.2,81.3-181.2,181.2c0,99.9,81.3,181.2,181.2,181.2c48.3,0,93.8-18.9,128.1-53.1c34.3-34.3,53.1-79.7,53.1-128.1
	C942.1,636,860.8,554.7,760.9,554.7z"/>
<path fill="#222222" d="M536.6,921.8H152.6c-50.2,0-91-39.1-91-87.2V194.3c0-48.1,40.8-87.2,91-87.2h616c50.2,0,91,39.1,91,87.2
	v279.3h-28V194.3c0-32.6-28.3-59.2-63-59.2h-616c-34.7,0-63,26.5-63,59.2v640.3c0,32.6,28.3,59.2,63,59.2h384.1V921.8z"/>
<rect x="229.6" y="258.1" fill="#222222" width="465.2" height="30"/>
<rect x="228.9" y="415.1" fill="#222222" width="465.2" height="30"/>
<rect x="230.8" y="561" fill="#222222" width="328.5" height="30"/>
</svg>
