<?xml version="1.0" standalone="no"?><!DOCTYPE svg PUBLIC "-//W3C//DTD SVG 1.1//EN" "http://www.w3.org/Graphics/SVG/1.1/DTD/svg11.dtd"><svg t="1506480137863" class="icon" style="" viewBox="0 0 1024 1024" version="1.1" xmlns="http://www.w3.org/2000/svg" p-id="9752" xmlns:xlink="http://www.w3.org/1999/xlink" width="200" height="200"><defs><style type="text/css"></style></defs><path d="M958.842474 481.00155H65.157526A65.000209 65.000209 0 0 1 0 416.28737v-80.974958c0-35.682183 26.114496-71.507381 62.054106-71.507381h310.342034V124.122512c0-66.101423 50.784542-124.122512 117.372215-124.122512h44.477591c66.587673 0 117.41512 58.006788 117.41512 124.122512v139.639614h310.342035c35.93961 0 62.025502 35.882404 62.054105 71.507381v80.932054a65.000209 65.000209 0 0 1-65.214732 64.799989zM512.007151 77.69992a62.054105 62.054105 0 1 0 62.054105 62.054106A62.068407 62.068407 0 0 0 512.007151 77.69992z m-449.938744 713.643665V527.509951H961.931593v263.762126c0 92.301728 15.817433 177.424114 16.017654 178.15349A43.047443 43.047443 0 0 1 936.575076 1024h-145.302999V698.183768a15.517102 15.517102 0 0 0-15.517101-15.531403h-15.517102a15.5028 15.5028 0 0 0-15.517102 15.517102V1024h-124.108211V698.183768a15.5028 15.5028 0 0 0-15.517101-15.531403h-15.517102a15.5028 15.5028 0 0 0-15.517102 15.517102V1024H449.938744V698.183768a15.517102 15.517102 0 0 0-15.5028-15.531403h-15.517102a15.517102 15.517102 0 0 0-15.517102 15.517102V1024h-124.122512V698.183768a15.517102 15.517102 0 0 0-15.517102-15.531403h-15.517101a15.517102 15.517102 0 0 0-15.517102 15.517102V1024H87.38202a43.033142 43.033142 0 0 1-41.331266-54.54583c0.185919-0.700772 16.017653-86.50963 16.017653-178.182093z" fill="" p-id="9753"></path></svg>