<?xml version="1.0" encoding="utf-8"?>
<!-- Generator: Adobe Illustrator 18.0.0, SVG Export Plug-In . SVG Version: 6.00 Build 0)  -->
<!DOCTYPE svg PUBLIC "-//W3C//DTD SVG 1.1//EN" "http://www.w3.org/Graphics/SVG/1.1/DTD/svg11.dtd">
<svg version="1.1" id="图层_1" xmlns="http://www.w3.org/2000/svg" xmlns:xlink="http://www.w3.org/1999/xlink" x="0px" y="0px"
	 viewBox="0 0 1024 1024" enable-background="new 0 0 1024 1024" xml:space="preserve">
<path fill="#222222" d="M127.3,386.4v251c0,22.7,18.8,41.7,42,41.7h82.4c23.6,0,57.2,10.9,76,24.4l223.2,160.3
	c19.1,13.7,34,5.8,34-17.1V177.3c0-22.9-15.2-30.6-34-17.1L327.6,320.4c-19.1,13.7-52.8,24.4-76,24.4h-82.4
	c-11.1-0.1-21.8,4.2-29.6,12C131.7,364.6,127.3,375.3,127.3,386.4L127.3,386.4z M85.7,386.4c0-46.3,37.2-83.5,83.6-83.5h82.4
	c14.7,0,39.9-8,51.8-16.6l223.2-160.2c46.1-33.1,99.7-6,99.7,51.1v669.4c0,57.1-53.2,84.5-99.7,51.1L303.4,737.5
	c-11.8-8.5-37-16.6-51.7-16.6h-82.4c-46,0-83.3-37.3-83.6-83.5V386.4z M736.5,664.1c-9.3,6.8-22.3,4.7-29.1-4.6
	c-6.8-9.3-4.7-22.4,4.6-29.2c37.7-27.5,60-71.5,60-118.3c0-48.6-23.7-93.1-62.7-120.3c-9.4-6.6-11.8-19.6-5.2-29.1
	c6.5-9.5,19.5-11.8,28.9-5.3c50.5,35.1,80.6,92.9,80.6,154.6C813.6,572.1,784.9,628.7,736.5,664.1L736.5,664.1z M779.2,785.3
	c-10,5.7-22.7,2.1-28.3-8c-5.6-10.1-2.1-22.8,7.9-28.5c85.2-48.1,137.9-138.7,137.9-236.9c0-98.5-53-189.4-138.7-237.3
	c-10-5.6-13.6-18.4-8-28.4c5.6-10.1,18.3-13.7,28.3-8c98.8,55.4,160,160.1,160,273.8C938.3,626.5,876.7,730.1,779.2,785.3
	L779.2,785.3z M779.2,785.3"/>
</svg>
