<?xml version="1.0" encoding="utf-8"?>
<!-- Generator: Adobe Illustrator 18.0.0, SVG Export Plug-In . SVG Version: 6.00 Build 0)  -->
<!DOCTYPE svg PUBLIC "-//W3C//DTD SVG 1.1//EN" "http://www.w3.org/Graphics/SVG/1.1/DTD/svg11.dtd">
<svg version="1.1" id="图层_1" xmlns="http://www.w3.org/2000/svg" xmlns:xlink="http://www.w3.org/1999/xlink" x="0px" y="0px"
	 viewBox="0 0 1024 1024" enable-background="new 0 0 1024 1024" xml:space="preserve">
<g>
	<g>
		<path fill="#222222" d="M832.2,89.9H415.7c-67.5,0-122.4,54.5-122.4,122.3v92.2H129.2c-10.3,0-18.8,8.5-18.8,18.8v488.6
			c0,67.3,54.9,122.3,122.4,122.3h599.3c67.5,0,122.4-55,122.4-122.3V212.2C954.6,145,899.7,89.9,832.2,89.9z M748.2,811.8
			c0,46.6-38,84.7-84.9,84.7H232.8c-46.9,0-84.9-38.1-84.9-84.7V341.5h160c1.3,0.3,2.7,0.5,4.1,0.5c1.4,0,2.8-0.2,4.1-0.5h259.9
			v153.8c0,10.3,8.4,18.8,18.8,18.8h153.4V811.8z M613.6,476.5V368.8l107.9,107.7H613.6z M917,811.8c0,46.6-38,84.7-84.9,84.7h-80.7
			c21.1-22,34-51.9,33.8-84.7V501.5c2.1-6.8,0.1-14.5-4.7-19.4L608.5,310c-2.6-2.6-5.6-4.3-8.8-5.1c-0.2-0.1-0.5-0.1-0.7-0.2
			c-0.1,0-0.2,0-0.3-0.1c-0.3-0.1-0.6-0.1-0.9-0.1c-0.2,0-0.4-0.1-0.6-0.1c0,0-0.1,0-0.1,0c-0.7-0.1-1.4-0.1-2-0.1
			c-0.2,0-0.4,0-0.6,0H330.8v-92.2c0-46.6,38-84.6,84.9-84.6h416.4c46.9,0,84.9,38.1,84.9,84.6V811.8z M213.1,578.5h303.4
			c10.8,0,19.2-8.5,19.2-18.8c0-10.3-8.4-18.8-18.8-18.8H213.1c-10.3,0-18.8,8.5-18.8,18.8C194.4,570.1,202.8,578.5,213.1,578.5z
			 M690.5,774.2H213.1c-10.3,0-18.8,8.5-18.8,18.8c0,10.3,8.4,18.8,18.8,18.8h477.4c10.3,0,18.8-8.5,18.8-18.8
			C709.3,782.6,700.9,774.2,690.5,774.2z M213.1,461.9h303.4c10.8,0,19.2-8,19.2-18.8c0-10.3-8.4-18.8-18.8-18.8H213.1
			c-10.3,0-18.8,8.5-18.8,18.8C194.4,453.5,202.8,461.9,213.1,461.9z M194.4,676.4c0,10.3,8.4,18.8,18.8,18.8h477.4
			c10.3,0,18.8-8.5,18.8-18.8c0-10.3-8.4-18.8-18.8-18.8H213.1C202.8,657.5,194.4,666,194.4,676.4z"/>
	</g>
</g>
</svg>
