<?xml version="1.0" standalone="no"?><!DOCTYPE svg PUBLIC "-//W3C//DTD SVG 1.1//EN" "http://www.w3.org/Graphics/SVG/1.1/DTD/svg11.dtd"><svg t="1506480228917" class="icon" style="" viewBox="0 0 1448 1024" version="1.1" xmlns="http://www.w3.org/2000/svg" p-id="1185" xmlns:xlink="http://www.w3.org/1999/xlink" width="282.8125" height="200"><defs><style type="text/css"></style></defs><path d="M1097.950826 440.907471l-413.662431-381.917092c-7.176149-6.689631-16.906521-10.703409-27.123411-10.703409s-19.460744 3.52726-27.123411 10.703409l-413.175912 381.917092c-12.284594 11.311557-15.811854 28.218078-10.21689 43.543414 6.203112 15.325336 20.433781 25.055707 36.853783 25.055707h84.532605v342.022568c0 22.014966 17.879558 39.894524 39.894524 39.894525H561.92897c22.014966 0 39.894524-17.879558 39.894524-39.894525V636.974463H712.749733v198.134695c0 1.337926 0.12163 2.554223 0.243259 3.770519V851.407531c0 22.014966 17.879558 39.894524 39.894524 39.894524h193.999288c22.014966 0 39.894524-17.879558 39.894524-39.894524V509.506592h84.532605c16.420002 0 31.258819-9.730372 36.853783-25.055707 6.203112-15.446965 2.067704-32.353486-10.21689-43.543414z m-33.083265 33.569783c-1.946074 4.865186-6.324742 7.784297-11.798075 7.784297h-106.304312v352.847607c0 6.81126-5.838223 12.771113-12.771113 12.771113H751.67122c-6.203112 0-11.676446-4.865186-12.527854-10.946668V610.33757h-0.121629v-6.081483H575.308231v6.081483h-0.121629v226.231144c-0.729778 6.203112-6.324742 11.311557-12.649484 11.311557H380.335907c-6.81126 0-12.771113-5.838223-12.771113-12.771113V482.261551h-105.817793c-5.351704 0-9.852001-3.40563-11.798076-7.784297-1.946074-4.865186-0.486519-10.33852 3.40563-13.74415L649.259057 95.236014c4.865186-4.378667 12.284594-4.378667 17.14978 0l395.904502 365.618719c3.52726 3.284 4.500297 9.243853 2.554222 13.622521z" fill="" p-id="1186"></path></svg>