<?xml version="1.0" standalone="no"?><!DOCTYPE svg PUBLIC "-//W3C//DTD SVG 1.1//EN" "http://www.w3.org/Graphics/SVG/1.1/DTD/svg11.dtd"><svg t="1506480240983" class="icon" style="" viewBox="0 0 1024 1024" version="1.1" xmlns="http://www.w3.org/2000/svg" p-id="1298" xmlns:xlink="http://www.w3.org/1999/xlink" width="200" height="200"><defs><style type="text/css"></style></defs><path d="M81.264365 499.048367C48.354864 532.74042 59.924842 560.053225 107.152702 560.053225L179.680605 560.053225 179.680605 802.409224 180.211432 906.77939C180.211432 935.818019 203.754799 959.366212 232.798255 959.366212L369.227799 959.366212C398.271255 959.366212 421.814622 935.818019 421.814622 906.77939L421.814622 729.334016C421.814622 717.589378 431.310436 708.068467 443.051795 708.068467L568.260486 708.068467C579.989453 708.068467 589.497658 717.652708 589.497658 729.334016L589.497658 906.77939C589.497658 935.818019 613.041024 959.366212 642.08448 959.366212L778.514027 959.366212C807.557481 959.366212 831.100849 935.818019 831.100849 906.77939L831.100849 802.409224 831.62685 560.053225 904.156969 560.053225C951.365647 560.053225 962.925602 532.707846 930.047917 499.048367L565.244064 125.569897C532.334562 91.877843 478.945901 91.910417 446.068215 125.569897L81.264365 499.048367Z" p-id="1299"></path></svg>