<?xml version="1.0" encoding="utf-8"?>
<!-- Generator: Adobe Illustrator 18.0.0, SVG Export Plug-In . SVG Version: 6.00 Build 0)  -->
<!DOCTYPE svg PUBLIC "-//W3C//DTD SVG 1.1//EN" "http://www.w3.org/Graphics/SVG/1.1/DTD/svg11.dtd">
<svg version="1.1" id="图层_1" xmlns="http://www.w3.org/2000/svg" xmlns:xlink="http://www.w3.org/1999/xlink" x="0px" y="0px"
	 viewBox="0 0 1024 1024" enable-background="new 0 0 1024 1024" xml:space="preserve">
<g>
	<g>
		<path fill="#222222" d="M745.2,305.2l-35.8-36.4l-35.8,36.4l35.8,36.4L745.2,305.2z M516.4,534.6c14.3,0,25.9-11.8,25.9-26.2
			V219.3c0-14.5-11.6-26.2-25.9-26.2c-14.3,0-25.9,11.7-25.9,26.2v262.8h-207c-14.3,0-25.9,11.7-25.9,26.2
			c0,14.5,11.6,26.2,25.9,26.2H516.4z M353.3,306.5l-36.6-37.1l-36.6,37.1l36.6,37.1L353.3,306.5z M276.7,686.9l35.8,36.4l35.8-36.4
			l-35.8-36.4L276.7,686.9z M706.7,793.9l-67.2-68.1l-25.2,25.5l79.8,80.9c7,7.1,18.2,7.1,25.2,0l152.2-154.3l-25.2-25.5
			L706.7,793.9z M743,508.4c-128.8,0-233.3,105.9-233.3,236.5c0,130.6,104.5,236.5,233.3,236.5c128.8,0,233.3-105.9,233.3-236.5
			C976.2,614.3,871.8,508.4,743,508.4z M743,945c-109,0-197.4-89.6-197.4-200.1c0-110.5,88.4-200.1,197.4-200.1
			c109,0,197.4,89.6,197.4,200.1C940.4,855.4,852,945,743,945z"/>
	</g>
</g>
<g>
	<path fill="#222222" d="M512,966.5c-58.7,0-115.6-12.1-169.2-35.8c-51.7-22.9-98.1-55.8-137.9-97.6c-39.8-41.7-71-90.3-92.8-144.4
		c-22.6-56-34-115.4-34-176.6c0-61.3,11.4-120.7,34-176.7c21.8-54.1,53-102.7,92.8-144.4c39.8-41.8,86.2-74.6,137.9-97.6
		C396.4,69.5,453.3,57.5,512,57.5s115.6,12.1,169.2,35.8c51.7,22.9,98.1,55.8,137.9,97.6c39.8,41.7,71,90.3,92.8,144.4
		c22.6,56,34,115.4,34,176.7h-35c0-231.3-178.9-419.5-398.8-419.5c-219.9,0-398.8,188.2-398.8,419.5
		c0,231.3,178.9,419.5,398.8,419.5c5.3,0,10.7-0.1,16.1-0.3l1.5,35C523.7,966.4,517.8,966.5,512,966.5z"/>
</g>
</svg>
