<?xml version="1.0" standalone="no"?><!DOCTYPE svg PUBLIC "-//W3C//DTD SVG 1.1//EN" "http://www.w3.org/Graphics/SVG/1.1/DTD/svg11.dtd"><svg t="1506503994556" class="icon" style="" viewBox="0 0 1024 1024" version="1.1" xmlns="http://www.w3.org/2000/svg" p-id="27921" xmlns:xlink="http://www.w3.org/1999/xlink" width="200" height="200"><defs><style type="text/css"></style></defs><path d="M709.7344 297.7792c4.1984 0 8.430933-1.604267 11.6736-4.8128l197.7344-197.7344c6.417067-6.417067 6.417067-16.861867 0-23.313067-6.417067-6.417067-16.861867-6.417067-23.3472 0L698.0608 269.653333c-3.208533 3.208533-4.8128 7.441067-4.8128 11.639467s1.604267 8.430933 4.8128 11.639467C701.3376 296.174933 705.536 297.7792 709.7344 297.7792z" p-id="27922"></path><path d="M973.4144 495.547733l-263.68 0c-9.1136 0-16.452267 7.338667-16.452267 16.452267s7.3728 16.452267 16.452267 16.452267l263.68 0C982.493867 528.452267 989.866667 521.1136 989.866667 512S982.493867 495.547733 973.4144 495.547733z" p-id="27923"></path><path d="M895.7952 952.081067c3.242667 3.242667 7.4752 4.846933 11.6736 4.846933s8.465067-1.604267 11.6736-4.846933c6.417067-6.417067 6.417067-16.861867 0-23.278933l-197.7344-197.768533c-6.4512-6.417067-16.861867-6.417067-23.3472 0-3.208533 3.242667-4.8128 7.441067-4.8128 11.639467 0 4.232533 1.604267 8.465067 4.8128 11.6736L895.7952 952.081067z" p-id="27924"></path><path d="M693.282133 50.619733c0-6.3488-3.618133-12.117333-9.3184-14.848-5.768533-2.730667-12.4928-2.013867-17.476267 1.979733l-325.0176 260.027733L116.5312 297.7792C71.099733 297.7792 34.133333 334.7456 34.133333 380.177067l0 263.611733c0 45.4656 36.9664 82.397867 82.397867 82.397867l224.904533 0 325.0176 260.061867C669.457067 988.637867 673.143467 989.866667 676.795733 989.866667c2.389333 0 4.881067-0.546133 7.133867-1.6384 5.700267-2.730667 9.3184-8.4992 9.3184-14.848l0-230.741333L693.248 512 693.248 281.326933 693.248 50.619733zM660.309333 939.076267l-302.7968-242.210133c-2.901333-2.321067-6.5536-3.584-10.308267-3.584L116.5312 693.282133c-27.272533 0-49.425067-22.186667-49.425067-49.4592l0-263.611733c0-27.272533 22.152533-49.425067 49.425067-49.425067l230.673067 0c3.754667 0 7.3728-1.297067 10.308267-3.618133l302.7968-242.210133L660.309333 939.076267z" p-id="27925"></path></svg>