<?xml version="1.0" standalone="no"?><!DOCTYPE svg PUBLIC "-//W3C//DTD SVG 1.1//EN" "http://www.w3.org/Graphics/SVG/1.1/DTD/svg11.dtd"><svg t="1506479881925" class="icon" style="" viewBox="0 0 1024 1024" version="1.1" xmlns="http://www.w3.org/2000/svg" p-id="6921" xmlns:xlink="http://www.w3.org/1999/xlink" width="200" height="200"><defs><style type="text/css"></style></defs><path d="M259.2 54.293c-118.4 0-214.293 96-214.293 214.293 0 118.4 96 214.293 214.293 214.293h214.4v-214.293c0-118.4-96-214.293-214.4-214.293v0zM968.213 268.587c0-118.4-96-214.293-214.293-214.293s-214.4 96-214.4 214.293v214.293h214.4c118.293 0 214.293-95.893 214.293-214.293v0zM44.907 763.2c0 118.4 96 214.293 214.293 214.293 118.4 0 214.293-95.893 214.293-214.293v-214.293h-214.293c-118.293 0-214.293 95.893-214.293 214.293v0zM753.813 548.907h-214.4v214.293c0 118.4 96 214.293 214.4 214.293s214.293-96 214.293-214.293c0.107-118.4-95.893-214.293-214.293-214.293v0z" p-id="6922"></path></svg>