<?xml version="1.0" encoding="utf-8"?>
<!-- Generator: Adobe Illustrator 18.0.0, SVG Export Plug-In . SVG Version: 6.00 Build 0)  -->
<!DOCTYPE svg PUBLIC "-//W3C//DTD SVG 1.1//EN" "http://www.w3.org/Graphics/SVG/1.1/DTD/svg11.dtd">
<svg version="1.1" id="图层_1" xmlns="http://www.w3.org/2000/svg" xmlns:xlink="http://www.w3.org/1999/xlink" x="0px" y="0px"
	 viewBox="0 0 1024 1024" enable-background="new 0 0 1024 1024" xml:space="preserve">
<path fill="#72E19C" stroke="#72E19C" stroke-miterlimit="10" d="M619.8,112.2c-10.7-5.7-23.3-4.1-32.5,4.1
	c15.6,0-308.4,151.4-321.9,157H86.2c-13.7,0-25.4,11.9-25.4,26.8v425.9c0,14.4,11.2,26.8,25.4,26.8h199.5
	c27.1,11,300.1,149.1,300.1,155.9c5.6,5.2,13.2,8.3,20.3,8.3c4.1,0,8.6-1,12.7-2.6c11.2-5.2,18.3-17,18.3-29.4V141.7
	C637,128.8,630.4,117.9,619.8,112.2L619.8,112.2z"/>
<path fill-rule="evenodd" clip-rule="evenodd" fill="#B0F3B1" d="M792.8,698.7V327.3c102.5,0,185.7,83.1,185.7,185.7
	C978.4,615.5,895.3,698.7,792.8,698.7z"/>
</svg>
