<?xml version="1.0" standalone="no"?><!DOCTYPE svg PUBLIC "-//W3C//DTD SVG 1.1//EN" "http://www.w3.org/Graphics/SVG/1.1/DTD/svg11.dtd"><svg t="1506480319367" class="icon" style="" viewBox="0 0 1024 1024" version="1.1" xmlns="http://www.w3.org/2000/svg" p-id="2221" xmlns:xlink="http://www.w3.org/1999/xlink" width="200" height="200"><defs><style type="text/css"></style></defs><path d="M959 304.4c-0.2-1.7-0.4-3.4-1-4.9-0.1-0.3-0.4-0.5-0.6-0.9-0.9-1.8-2-3.6-3.4-5.1-1-1-2.4-1.7-3.7-2.5-0.8-0.5-1.4-1.2-2.3-1.5-1.3-0.6-2.9-0.6-4.3-0.9-1-0.2-1.9-0.6-2.9-0.6h-55.5V82.6c0-10.3-8.4-18.7-18.7-18.7H156.1c-10.3 0-18.7 8.4-18.7 18.7V288H81.9c-5.2 0-9.8 2.1-13.2 5.5-0.3 0.3-0.4 0.6-0.6 0.9-1.4 1.5-2.6 3.1-3.4 5-0.5 1.1-0.5 2.4-0.7 3.6-0.3 1.2-0.7 2.4-0.7 3.7v560.2c0 51.5 41.9 93.4 93.4 93.4h709.6c51.5 0 93.4-41.9 93.4-93.4V306.7c-0.2-0.8-0.6-1.5-0.7-2.3z m-36.8 21v68.1l-36.8 46V325.4h36.8zM848 101.3v202.9c-0.1 0.9-0.5 1.6-0.5 2.5 0 0.9 0.4 1.7 0.5 2.5v177L709.7 659.1 577.4 539.3c-36.4-36.4-95.7-36.4-131.4-0.6L313 659.1 174.7 486.2V309.3c0.1-0.9 0.5-1.7 0.5-2.6 0-0.9-0.4-1.7-0.5-2.6V101.3H848zM137.4 439.5l-36.8-46v-68.1h36.8v114.1z m728.7 483.4H156.6c-30.9 0-56-25.1-56-56V453.3l40.2 50.2c0.9 1.3 1.8 2.6 3 3.7l141.6 177-103.9 94.1c-7.6 6.9-8.2 18.7-1.3 26.4 3.7 4.1 8.8 6.1 13.8 6.1 4.5 0 9-1.6 12.5-4.8l265.3-240.3c21.9-21.8 57.4-21.8 79.9 0.6L816.3 806c7.6 6.9 19.5 6.3 26.4-1.3 6.9-7.6 6.3-19.5-1.3-26.4l-103.9-94.1 141.5-177c1.1-1 2-2.2 2.8-3.5l40.3-50.4v413.6c0.1 30.9-25.1 56-56 56z" p-id="2222"></path><path d="M306 288h112c10.3 0 18.7-8.4 18.7-18.7v-112c0-10.3-8.4-18.7-18.7-18.7H306c-10.3 0-18.7 8.4-18.7 18.7v112c0 10.4 8.4 18.7 18.7 18.7z m18.6-112h74.7v74.7h-74.7V176zM306 362.7h410.8c10.3 0 18.7-8.4 18.7-18.7 0-10.3-8.4-18.7-18.7-18.7H306c-10.3 0-18.7 8.4-18.7 18.7 0 10.3 8.4 18.7 18.7 18.7zM306 437.4h410.8c10.3 0 18.7-8.4 18.7-18.7 0-10.3-8.4-18.7-18.7-18.7H306c-10.3 0-18.7 8.4-18.7 18.7 0 10.3 8.4 18.7 18.7 18.7z" p-id="2223"></path></svg>